STARTFONT 2.1
COMMENT "$XConsortium: us11x19.bdf /main/2 1996/10/29 18:25:24 drk $"
COMMENT "Hand-pixeled glyphs created with modified X Font Editor (Xfed)"
FONT -HP-HP User-Medium-R-Normal-Serif-15-150-72-72-M-110-ISO8859-1
SIZE 15 72 72 
FONTBOUNDINGBOX 11 19 0 -4
STARTPROPERTIES 25
COMMENT "Begin X Logical Font Description (XLFD) Version 1.5"
COPYRIGHT "(c) Copyright 1994, Hewlett Packard Company"
NOTICE "Created by the User Interaction Design Group, July 1994."
NOTICE "Hewlett Packard Company, 3000 Hanover St., Palo Alto, CA 94303, USA"
FONTNAME_REGISTRY ""
FOUNDRY "HP"
FAMILY_NAME "HP User"
WEIGHT_NAME "Medium"
SLANT "R"
ADD_STYLE_NAME "Serif"
SETWIDTH_NAME "Normal"
PIXEL_SIZE 15
POINT_SIZE 150
RESOLUTION_X 72
RESOLUTION_Y 72
SPACING "M"
AVERAGE_WIDTH 110
CHARSET_REGISTRY "ISO8859"
CHARSET_ENCODING "1"
COMMENT "End X Logical Font Description (XLFD)"
CHARSET_COLLECTIONS "ISO8859-1"
FULL_NAME "HP User11x19"
CAP_HEIGHT 12
X_HEIGHT 8
FONT_ASCENT 15
FONT_DESCENT 4
DEFAULT_CHAR 32
COMMENT "End of Font Properties"
ENDPROPERTIES
CHARS 223
STARTCHAR Null
ENCODING 0
SWIDTH 733 0
DWIDTH 11 0
BBX 10 19 1 -4
BITMAP
0000
9000
D000
B000
9000
9000
0000
1200
1200
1200
1200
0C00
0000
0200
0200
0200
0200
03C0
0000
ENDCHAR
STARTCHAR StartOfHeading
ENCODING 1
SWIDTH 733 0
DWIDTH 11 0
BBX 10 19 1 -4
BITMAP
0000
7000
8000
6000
1000
E000
0000
0C00
1200
1200
1200
0C00
0000
0240
0240
03C0
0240
0240
0000
ENDCHAR
STARTCHAR StartOfText
ENCODING 2
SWIDTH 733 0
DWIDTH 11 0
BBX 10 19 1 -4
BITMAP
0000
7000
8000
6000
1000
E000
0000
1F00
0400
0400
0400
0400
0000
0440
0280
0100
0280
0440
0000
ENDCHAR
STARTCHAR EndOfText
ENCODING 3
SWIDTH 733 0
DWIDTH 11 0
BBX 10 19 1 -4
BITMAP
0000
F000
8000
E000
8000
F000
0000
1F00
0400
0400
0400
0400
0000
0440
0280
0100
0280
0440
0000
ENDCHAR
STARTCHAR EndOfTransmit
ENCODING 4
SWIDTH 733 0
DWIDTH 11 0
BBX 10 19 1 -4
BITMAP
0000
F000
8000
E000
8000
F000
0000
1C00
2200
2200
2200
1C00
0000
07C0
0100
0100
0100
0100
0000
ENDCHAR
STARTCHAR Enquiry
ENCODING 5
SWIDTH 733 0
DWIDTH 11 0
BBX 10 19 1 -4
BITMAP
0000
F000
8000
E000
8000
F000
0000
1200
1A00
1600
1200
1200
0000
0380
0440
0440
0540
0380
00C0
ENDCHAR
STARTCHAR Acknowledge
ENCODING 6
SWIDTH 733 0
DWIDTH 11 0
BBX 10 19 1 -4
BITMAP
0000
6000
9000
F000
9000
9000
0000
0C00
1200
1000
1200
0C00
0000
0240
0280
0300
0280
0240
0000
ENDCHAR
STARTCHAR Bell
ENCODING 7
SWIDTH 733 0
DWIDTH 11 0
BBX 10 19 1 -4
BITMAP
0000
0200
0400
0C00
1200
2100
2100
4080
4080
4080
4080
4080
8040
8040
FFC0
0600
0300
0000
0000
ENDCHAR
STARTCHAR BackSpace
ENCODING 8
SWIDTH 733 0
DWIDTH 11 0
BBX 9 19 1 -4
BITMAP
0000
F000
4800
4800
7000
4800
4800
F000
0000
0700
0880
0800
0700
0080
0880
0700
0000
0000
0000
ENDCHAR
STARTCHAR HorizontalTab
ENCODING 9
SWIDTH 733 0
DWIDTH 11 0
BBX 9 19 1 -4
BITMAP
0000
8800
8800
8800
F800
8800
8800
8800
0000
0F80
0200
0200
0200
0200
0200
0200
0000
0000
0000
ENDCHAR
STARTCHAR LineFeed
ENCODING 10
SWIDTH 733 0
DWIDTH 11 0
BBX 9 19 1 -4
BITMAP
0000
8000
8000
8000
8000
8000
8000
F800
0000
0F80
0800
0800
0F00
0800
0800
0800
0000
0000
0000
ENDCHAR
STARTCHAR VerticalTab
ENCODING 11
SWIDTH 733 0
DWIDTH 11 0
BBX 9 19 1 -4
BITMAP
0000
8800
8800
8800
5000
5000
2000
2000
0000
0F80
0200
0200
0200
0200
0200
0200
0000
0000
0000
ENDCHAR
STARTCHAR FormFeed
ENCODING 12
SWIDTH 733 0
DWIDTH 11 0
BBX 9 19 1 -4
BITMAP
0000
F800
8000
8000
F000
8000
8000
8000
0000
0F80
0800
0800
0F00
0800
0800
0800
0000
0000
0000
ENDCHAR
STARTCHAR CarriageReturn
ENCODING 13
SWIDTH 733 0
DWIDTH 11 0
BBX 9 19 1 -4
BITMAP
0000
7000
8800
8000
8000
8000
8800
7000
0000
0F00
0880
0880
0F00
0900
0880
0880
0000
0000
0000
ENDCHAR
STARTCHAR ShiftOut
ENCODING 14
SWIDTH 733 0
DWIDTH 11 0
BBX 9 19 1 -4
BITMAP
0000
7000
8800
8000
7000
0800
8800
7000
0000
0700
0880
0880
0880
0880
0880
0700
0000
0000
0000
ENDCHAR
STARTCHAR ShiftIn
ENCODING 15
SWIDTH 733 0
DWIDTH 11 0
BBX 8 19 1 -4
BITMAP
0000
7000
8800
8000
7000
0800
8800
7000
0000
0700
0200
0200
0200
0200
0200
0700
0000
0000
0000
ENDCHAR
STARTCHAR DataLinkEscape
ENCODING 16
SWIDTH 733 0
DWIDTH 11 0
BBX 10 19 1 -4
BITMAP
0000
f000
4800
4800
4800
f000
0000
1000
1000
1000
1000
1E00
0000
03C0
0200
0380
0200
03C0
0000
ENDCHAR
STARTCHAR DevCtrl1orXon
ENCODING 17
SWIDTH 733 0
DWIDTH 11 0
BBX 8 19 1 -4
BITMAP
0000
f000
4800
4800
4800
f000
0000
0C00
1200
1000
1200
0C00
0000
0100
0300
0100
0100
0100
0000
ENDCHAR
STARTCHAR DeviceControl2
ENCODING 18
SWIDTH 733 0
DWIDTH 11 0
BBX 10 19 1 -4
BITMAP
0000
f000
4800
4800
4800
f000
0000
0C00
1200
1000
1200
0C00
0000
0180
0240
0080
0100
03C0
0000
ENDCHAR
STARTCHAR DevCtrl3orXoff
ENCODING 19
SWIDTH 733 0
DWIDTH 11 0
BBX 10 19 1 -4
BITMAP
0000
f000
4800
4800
4800
f000
0000
0C00
1200
1000
1200
0C00
0000
0380
0040
0180
0040
0380
0000
ENDCHAR
STARTCHAR DeviceControl4
ENCODING 20
SWIDTH 733 0
DWIDTH 11 0
BBX 10 19 1 -4
BITMAP
0000
f000
4800
4800
4800
f000
0000
0C00
1200
1000
1200
0C00
0000
0080
0180
0280
03C0
0080
0000
ENDCHAR
STARTCHAR NegAcknowledge
ENCODING 21
SWIDTH 733 0
DWIDTH 11 0
BBX 10 19 1 -4
BITMAP
0000
9000
D000
B000
9000
9000
0000
0C00
1200
1E00
1200
1200
0000
0240
0280
0300
0280
0240
0000
ENDCHAR
STARTCHAR SynchronusIdle
ENCODING 22
SWIDTH 733 0
DWIDTH 11 0
BBX 10 19 1 -4
BITMAP
0000
7000
8000
6000
1000
E000
0000
1100
0A00
0400
0400
0400
0000
0240
0340
02C0
0240
0240
0000
ENDCHAR
STARTCHAR EndTransmit
ENCODING 23
SWIDTH 733 0
DWIDTH 11 0
BBX 10 19 1 -4
BITMAP
0000
F000
8000
E000
8000
F000
0000
1F00
0400
0400
0400
0400
0000
0780
0240
0380
0240
0780
0000
ENDCHAR
STARTCHAR Cancel
ENCODING 24
SWIDTH 733 0
DWIDTH 11 0
BBX 10 19 1 -4
BITMAP
0000
6000
9000
8000
9000
6000
0000
0C00
1200
1E00
1200
1200
0000
0240
0340
02C0
0240
0240
0000
ENDCHAR
STARTCHAR EndOfMedium
ENCODING 25
SWIDTH 733 0
DWIDTH 11 0
BBX 9 19 1 -4
BITMAP
0000
F800
8000
8000
F000
8000
8000
F800
0000
0880
0D80
0A80
0A80
0880
0880
0880
0000
0000
0000
ENDCHAR
STARTCHAR Substitute
ENCODING 26
SWIDTH 733 0
DWIDTH 11 0
BBX 10 19 1 -4
BITMAP
0000
7000
8000
6000
1000
E000
0000
1200
1200
1200
1200
0C00
0000
0780
0240
0380
0240
0780
0000
ENDCHAR
STARTCHAR Escape
ENCODING 27
SWIDTH 733 0
DWIDTH 11 0
BBX 10 19 1 -4
BITMAP
0000
F000
8000
E000
8000
F000
0000
0E00
1000
0C00
0200
1C00
0000
0180
0240
0200
0240
0180
0000
ENDCHAR
STARTCHAR FileSeparator
ENCODING 28
SWIDTH 733 0
DWIDTH 11 0
BBX 9 19 1 -4
BITMAP
0000
F800
8000
8000
F000
8000
8000
8000
0000
0700
0880
0800
0700
0080
0880
0700
0000
0000
0000
ENDCHAR
STARTCHAR GroupSeparator
ENCODING 29
SWIDTH 733 0
DWIDTH 11 0
BBX 9 19 1 -4
BITMAP
0000
7000
8800
8000
8000
9800
8800
7000
0000
0700
0880
0800
0700
0080
0880
0700
0000
0000
0000
ENDCHAR
STARTCHAR RecordSeparatr
ENCODING 30
SWIDTH 733 0
DWIDTH 11 0
BBX 9 19 1 -4
BITMAP
0000
F000
8800
8800
F000
9000
8800
8800
0000
0700
0880
0800
0700
0080
0880
0700
0000
0000
0000
ENDCHAR
STARTCHAR UnitSeparator
ENCODING 31
SWIDTH 733 0
DWIDTH 11 0
BBX 9 19 1 -4
BITMAP
0000
8800
8800
8800
8800
8800
8800
7000
0000
0700
0880
0800
0700
0080
0880
0700
0000
0000
0000
ENDCHAR
STARTCHAR PrintableSpace
ENCODING 32
SWIDTH 733 0
DWIDTH 11 0
BBX 11 19 0 -4
BITMAP
0000
0000
0000
0000
0000
0000
0000
0000
0000
0000
0000
0000
0000
0000
0000
0000
0000
0000
0000
ENDCHAR
STARTCHAR Exclamation
ENCODING 33
SWIDTH 733 0
DWIDTH 11 0
BBX 4 19 3 -4
BITMAP
0000
0000
6000
6000
6000
6000
6000
6000
6000
6000
6000
0000
0000
6000
f000
6000
0000
0000
0000
ENDCHAR
STARTCHAR NeutrlDblQuote
ENCODING 34
SWIDTH 733 0
DWIDTH 11 0
BBX 5 19 3 -4
BITMAP
0000
0000
d800
d800
d800
9000
9000
0000
0000
0000
0000
0000
0000
0000
0000
0000
0000
0000
0000
ENDCHAR
STARTCHAR NumberSign
ENCODING 35
SWIDTH 733 0
DWIDTH 11 0
BBX 10 19 1 -4
BITMAP
0000
0000
3300
3300
3300
ffc0
FFC0
3300
3300
3300
FFC0
FFC0
3300
3300
3300
3300
0000
0000
0000
ENDCHAR
STARTCHAR DollarSign
ENCODING 36
SWIDTH 733 0
DWIDTH 11 0
BBX 8 19 2 -4
BITMAP
0000
1800
1800
7f00
e300
c100
c000
e000
7800
1e00
0700
0300
8300
c700
fe00
1800
1800
0000
0000
ENDCHAR
STARTCHAR PerCentSign
ENCODING 37
SWIDTH 733 0
DWIDTH 11 0
BBX 10 19 1 -4
BITMAP
0000
0000
7180
d900
8b00
da00
7600
0400
0c00
0800
1b80
16c0
3440
26c0
6380
0000
0000
0000
0000
ENDCHAR
STARTCHAR Ampersand
ENCODING 38
SWIDTH 733 0
DWIDTH 11 0
BBX 9 19 1 -4
BITMAP
0000
0000
3800
6c00
4400
4c00
6800
3800
3000
7980
6d00
cf00
c600
c600
6f00
3980
0000
0000
0000
ENDCHAR
STARTCHAR SingleCloseQut
ENCODING 39
SWIDTH 733 0
DWIDTH 11 0
BBX 4 19 3 -4
BITMAP
0000
0000
2000
7000
7000
3000
6000
C000
0000
0000
0000
0000
0000
0000
0000
0000
0000
0000
0000
ENDCHAR
STARTCHAR OpenParen
ENCODING 40
SWIDTH 733 0
DWIDTH 11 0
BBX 5 19 3 -4
BITMAP
0000
1800
3000
6000
6000
C000
C000
C000
C000
C000
C000
C000
C000
6000
6000
3000
1800
0000
0000
ENDCHAR
STARTCHAR CloseParen
ENCODING 41
SWIDTH 733 0
DWIDTH 11 0
BBX 5 19 3 -4
BITMAP
0000
c000
6000
3000
3000
1800
1800
1800
1800
1800
1800
1800
1800
3000
3000
6000
c000
0000
0000
ENDCHAR
STARTCHAR Asterisk
ENCODING 42
SWIDTH 733 0
DWIDTH 11 0
BBX 8 19 2 -4
BITMAP
0000
0000
0000
0000
0000
1800
DB00
dB00
3C00
3C00
DB00
DB00
1800
0000
0000
0000
0000
0000
0000
ENDCHAR
STARTCHAR PlusSign
ENCODING 43
SWIDTH 733 0
DWIDTH 11 0
BBX 10 19 1 -4
BITMAP
0000
0000
0000
0000
0C00
0C00
0C00
0C00
FFC0
FFC0
0C00
0C00
0C00
0C00
0000
0000
0000
0000
0000
ENDCHAR
STARTCHAR Comma
ENCODING 44
SWIDTH 733 0
DWIDTH 11 0
BBX 4 19 3 -4
BITMAP
0000
0000
0000
0000
0000
0000
0000
0000
0000
0000
0000
0000
2000
7000
7000
3000
6000
C000
0000
ENDCHAR
STARTCHAR Hyphen
ENCODING 45
SWIDTH 733 0
DWIDTH 11 0
BBX 10 19 1 -4
BITMAP
0000
0000
0000
0000
0000
0000
0000
0000
FFC0
FFC0
0000
0000
0000
0000
0000
0000
0000
0000
0000
ENDCHAR
STARTCHAR Period
ENCODING 46
SWIDTH 733 0
DWIDTH 11 0
BBX 3 19 4 -4
BITMAP
0000
0000
0000
0000
0000
0000
0000
0000
0000
0000
0000
0000
4000
E000
E000
4000
0000
0000
0000
ENDCHAR
STARTCHAR Slash
ENCODING 47
SWIDTH 733 0
DWIDTH 11 0
BBX 9 19 1 -4
BITMAP
0000
0180
0100
0300
0200
0600
0400
0c00
0800
1800
1000
3000
2000
6000
4000
c000
8000
0000
0000
ENDCHAR
STARTCHAR Zero
ENCODING 48
SWIDTH 733 0
DWIDTH 11 0
BBX 8 19 2 -4
BITMAP
0000
0000
0000
3c00
6600
4200
c300
c300
db00
db00
c300
c300
4200
6600
3c00
0000
0000
0000
0000
ENDCHAR
STARTCHAR One
ENCODING 49
SWIDTH 733 0
DWIDTH 11 0
BBX 5 19 3 -4
BITMAP
0000
0000
0000
1800
3800
7800
d800
1800
1800
1800
1800
1800
1800
1800
1800
0000
0000
0000
0000
ENDCHAR
STARTCHAR Two
ENCODING 50
SWIDTH 733 0
DWIDTH 11 0
BBX 8 19 2 -4
BITMAP
0000
0000
0000
3c00
6600
c300
c300
0300
0600
0c00
1800
3000
6000
c100
ff00
0000
0000
0000
0000
ENDCHAR
STARTCHAR Three
ENCODING 51
SWIDTH 733 0
DWIDTH 11 0
BBX 8 19 2 -4
BITMAP
0000
0000
0000
3C00
6600
c300
0300
0600
1C00
0600
0300
0300
0300
C600
7C00
0000
0000
0000
0000
ENDCHAR
STARTCHAR Four
ENCODING 52
SWIDTH 733 0
DWIDTH 11 0
BBX 9 19 1 -4
BITMAP
0000
0000
0c00
0800
1800
1000
3000
2200
6600
4600
c600
FF80
0600
0600
0600
0000
0000
0000
0000
ENDCHAR
STARTCHAR Five
ENCODING 53
SWIDTH 733 0
DWIDTH 11 0
BBX 8 19 2 -4
BITMAP
0000
0000
0000
7F00
6000
6000
6000
7C00
0600
0300
0300
0300
0300
C600
7C00
0000
0000
0000
0000
ENDCHAR
STARTCHAR Six
ENCODING 54
SWIDTH 733 0
DWIDTH 11 0
BBX 8 19 2 -4
BITMAP
0000
0000
0000
0E00
3000
6000
4000
DC00
E600
C300
C300
C300
C300
6600
3C00
0000
0000
0000
0000
ENDCHAR
STARTCHAR Seven
ENCODING 55
SWIDTH 733 0
DWIDTH 11 0
BBX 8 19 2 -4
BITMAP
0000
0000
0000
ff00
ff00
8200
0600
0400
0c00
0800
0800
1800
1000
1000
3000
0000
0000
0000
0000
ENDCHAR
STARTCHAR Eight
ENCODING 56
SWIDTH 733 0
DWIDTH 11 0
BBX 8 19 2 -4
BITMAP
0000
0000
0000
3C00
6600
C300
C300
6600
3C00
6600
C300
C300
C300
6600
3C00
0000
0000
0000
0000
ENDCHAR
STARTCHAR Nine
ENCODING 57
SWIDTH 733 0
DWIDTH 11 0
BBX 8 19 2 -4
BITMAP
0000
0000
0000
3C00
6600
C300
C300
C300
C300
6700
3B00
0200
0600
0C00
7000
0000
0000
0000
0000
ENDCHAR
STARTCHAR Colon
ENCODING 58
SWIDTH 733 0
DWIDTH 11 0
BBX 3 19 4 -4
BITMAP
0000
0000
0000
0000
0000
0000
0000
4000
E000
E000
4000
0000
4000
E000
E000
4000
0000
0000
0000
ENDCHAR
STARTCHAR Simicolon
ENCODING 59
SWIDTH 733 0
DWIDTH 11 0
BBX 4 19 3 -4
BITMAP
0000
0000
0000
0000
0000
0000
0000
2000
7000
7000
2000
0000
2000
7000
7000
3000
6000
C000
0000
ENDCHAR
STARTCHAR LessThanSign
ENCODING 60
SWIDTH 733 0
DWIDTH 11 0
BBX 10 19 1 -4
BITMAP
0000
0000
0000
0000
00c0
03c0
0f00
3c00
f000
f000
3c00
0f00
03c0
00c0
0000
0000
0000
0000
0000
ENDCHAR
STARTCHAR EqualsSign
ENCODING 61
SWIDTH 733 0
DWIDTH 11 0
BBX 10 19 1 -4
BITMAP
0000
0000
0000
0000
0000
0000
FFC0
FFC0
0000
0000
FFC0
FFC0
0000
0000
0000
0000
0000
0000
0000
ENDCHAR
STARTCHAR GreatrThanSign
ENCODING 62
SWIDTH 733 0
DWIDTH 11 0
BBX 10 19 1 -4
BITMAP
0000
0000
0000
0000
c000
f000
3c00
0f00
03c0
03c0
0f00
3c00
f000
c000
0000
0000
0000
0000
0000
ENDCHAR
STARTCHAR QuestionMark
ENCODING 63
SWIDTH 733 0
DWIDTH 11 0
BBX 8 19 2 -4
BITMAP
0000
0000
7c00
c600
c300
c300
0300
0600
1c00
3000
3000
0000
0000
3000
7800
3000
0000
0000
0000
ENDCHAR
STARTCHAR CommerclAtSign
ENCODING 64
SWIDTH 733 0
DWIDTH 11 0
BBX 9 19 1 -4
BITMAP
0000
0000
1c00
7700
4100
c180
9c80
b680
b680
b680
b680
9b00
c000
4180
7300
1e00
0000
0000
0000
ENDCHAR
STARTCHAR A
ENCODING 65
SWIDTH 733 0
DWIDTH 11 0
BBX 10 19 1 -4
BITMAP
0000
0000
0000
0C00
0C00
0c00
1600
1600
1600
2300
3f00
2300
4180
4180
E3c0
0000
0000
0000
0000
ENDCHAR
STARTCHAR B
ENCODING 66
SWIDTH 733 0
DWIDTH 11 0
BBX 9 19 1 -4
BITMAP
0000
0000
0000
FE00
6300
6300
6300
6600
7E00
6300
6180
6180
6180
6300
FE00
0000
0000
0000
0000
ENDCHAR
STARTCHAR C
ENCODING 67
SWIDTH 733 0
DWIDTH 11 0
BBX 9 19 1 -4
BITMAP
0000
0000
0000
1F80
7080
6080
C000
C000
C000
C000
C000
C000
6080
7080
1f00
0000
0000
0000
0000
ENDCHAR
STARTCHAR D
ENCODING 68
SWIDTH 733 0
DWIDTH 11 0
BBX 10 19 1 -4
BITMAP
0000
0000
0000
FE00
6380
6180
60C0
60C0
60C0
60C0
60C0
60C0
6180
6380
FE00
0000
0000
0000
0000
ENDCHAR
STARTCHAR E
ENCODING 69
SWIDTH 733 0
DWIDTH 11 0
BBX 8 19 2 -4
BITMAP
0000
0000
0000
FF00
6100
6100
6000
6400
7C00
6400
6000
6000
6100
6100
FF00
0000
0000
0000
0000
ENDCHAR
STARTCHAR F
ENCODING 70
SWIDTH 733 0
DWIDTH 11 0
BBX 8 19 2 -4
BITMAP
0000
0000
0000
FF00
6100
6100
6000
6400
7C00
6400
6000
6000
6000
6000
F800
0000
0000
0000
0000
ENDCHAR
STARTCHAR G
ENCODING 71
SWIDTH 733 0
DWIDTH 11 0
BBX 10 19 1 -4
BITMAP
0000
0000
0000
1F80
7180
6180
C000
C000
C000
C7c0
C180
C180
6180
7380
1E00
0000
0000
0000
0000
ENDCHAR
STARTCHAR H
ENCODING 72
SWIDTH 733 0
DWIDTH 11 0
BBX 10 19 1 -4
BITMAP
0000
0000
0000
F3C0
6180
6180
6180
6180
7F80
6180
6180
6180
6180
6180
F3C0
0000
0000
0000
0000
ENDCHAR
STARTCHAR I
ENCODING 73
SWIDTH 733 0
DWIDTH 11 0
BBX 6 19 3 -4
BITMAP
0000
0000
0000
FC00
3000
3000
3000
3000
3000
3000
3000
3000
3000
3000
FC00
0000
0000
0000
0000
ENDCHAR
STARTCHAR J
ENCODING 74
SWIDTH 733 0
DWIDTH 11 0
BBX 8 19 1 -4
BITMAP
0000
0000
0000
1f00
0600
0600
0600
0600
0600
0600
0600
8600
8600
8c00
7800
0000
0000
0000
0000
ENDCHAR
STARTCHAR K
ENCODING 75
SWIDTH 733 0
DWIDTH 11 0
BBX 10 19 1 -4
BITMAP
0000
0000
0000
F1C0
6180
6300
6600
6C00
7C00
7600
6600
6300
6300
6180
F1C0
0000
0000
0000
0000
ENDCHAR
STARTCHAR L
ENCODING 76
SWIDTH 733 0
DWIDTH 11 0
BBX 9 19 1 -4
BITMAP
0000
0000
0000
F000
6000
6000
6000
6000
6000
6000
6000
6000
6080
6080
FF80
0000
0000
0000
0000
ENDCHAR
STARTCHAR M
ENCODING 77
SWIDTH 733 0
DWIDTH 11 0
BBX 11 19 0 -4
BITMAP
0000
0000
0000
e0e0
60c0
71c0
71c0
5bc0
5ac0
4ec0
4cc0
44c0
40c0
40c0
e1e0
0000
0000
0000
0000
ENDCHAR
STARTCHAR N
ENCODING 78
SWIDTH 733 0
DWIDTH 11 0
BBX 9 19 1 -4
BITMAP
0000
0000
0000
e380
6100
7100
7100
5900
5900
4d00
4d00
4700
4700
4300
e300
0000
0000
0000
0000
ENDCHAR
STARTCHAR O
ENCODING 79
SWIDTH 733 0
DWIDTH 11 0
BBX 10 19 1 -4
BITMAP
0000
0000
0000
1E00
7380
6180
C0C0
c0c0
c0c0
c0c0
c0c0
C0C0
6180
7380
1E00
0000
0000
0000
0000
ENDCHAR
STARTCHAR P
ENCODING 80
SWIDTH 733 0
DWIDTH 11 0
BBX 9 19 1 -4
BITMAP
0000
0000
0000
FE00
6300
6180
6180
6180
6300
7E00
6000
6000
6000
6000
F800
0000
0000
0000
0000
ENDCHAR
STARTCHAR Q
ENCODING 81
SWIDTH 733 0
DWIDTH 11 0
BBX 10 19 1 -4
BITMAP
0000
0000
0000
1E00
7380
6180
C0C0
C0C0
C0C0
C0C0
C0C0
C0C0
6d80
7780
1f00
0300
0180
00c0
0000
ENDCHAR
STARTCHAR R
ENCODING 82
SWIDTH 733 0
DWIDTH 11 0
BBX 10 19 1 -4
BITMAP
0000
0000
0000
FE00
6300
6300
6300
6300
7e00
6600
6600
6300
6300
6180
F1C0
0000
0000
0000
0000
ENDCHAR
STARTCHAR S
ENCODING 83
SWIDTH 733 0
DWIDTH 11 0
BBX 7 19 2 -4
BITMAP
0000
0000
0000
3e00
6200
c200
c000
e000
7800
3c00
0e00
0600
8600
8c00
f800
0000
0000
0000
0000
ENDCHAR
STARTCHAR T
ENCODING 84
SWIDTH 733 0
DWIDTH 11 0
BBX 10 19 1 -4
BITMAP
0000
0000
0000
FFC0
8C40
8C40
0C00
0C00
0C00
0C00
0C00
0C00
0C00
0C00
3F00
0000
0000
0000
0000
ENDCHAR
STARTCHAR U
ENCODING 85
SWIDTH 733 0
DWIDTH 11 0
BBX 10 19 1 -4
BITMAP
0000
0000
0000
F1C0
6080
6080
6080
6080
6080
6080
6080
6080
6080
3100
1E00
0000
0000
0000
0000
ENDCHAR
STARTCHAR V
ENCODING 86
SWIDTH 733 0
DWIDTH 11 0
BBX 10 19 1 -4
BITMAP
0000
0000
0000
F1c0
4080
6080
2100
3100
3100
1200
1a00
1a00
0c00
0C00
0C00
0000
0000
0000
0000
ENDCHAR
STARTCHAR W
ENCODING 87
SWIDTH 733 0
DWIDTH 11 0
BBX 11 19 0 -4
BITMAP
0000
0000
0000
e0e0
4040
4440
64c0
2480
2e80
2a80
3b80
1b00
1100
1100
1100
0000
0000
0000
0000
ENDCHAR
STARTCHAR X
ENCODING 88
SWIDTH 733 0
DWIDTH 11 0
BBX 10 19 1 -4
BITMAP
0000
0000
0000
F3C0
6180
3300
1200
1e00
0c00
1e00
1200
3300
2100
6180
F3C0
0000
0000
0000
0000
ENDCHAR
STARTCHAR Y
ENCODING 89
SWIDTH 733 0
DWIDTH 11 0
BBX 10 19 1 -4
BITMAP
0000
0000
0000
F3C0
6180
3100
3300
1a00
1e00
0C00
0C00
0C00
0C00
0C00
3F00
0000
0000
0000
0000
ENDCHAR
STARTCHAR Z
ENCODING 90
SWIDTH 733 0
DWIDTH 11 0
BBX 10 19 1 -4
BITMAP
0000
0000
0000
FFc0
80c0
8180
0300
0600
0c00
1800
3000
6000
C040
C040
FFc0
0000
0000
0000
0000
ENDCHAR
STARTCHAR OpenBracket
ENCODING 91
SWIDTH 733 0
DWIDTH 11 0
BBX 5 19 4 -4
BITMAP
0000
F800
C000
C000
C000
C000
C000
C000
C000
C000
C000
C000
C000
C000
C000
C000
F800
0000
0000
ENDCHAR
STARTCHAR BackSlash
ENCODING 92
SWIDTH 733 0
DWIDTH 11 0
BBX 9 19 1 -4
BITMAP
0000
C000
C000
6000
6000
3000
3000
1800
1800
0C00
0C00
0600
0600
0300
0300
0180
0180
0000
0000
ENDCHAR
STARTCHAR CloseBracket
ENCODING 93
SWIDTH 733 0
DWIDTH 11 0
BBX 5 19 3 -4
BITMAP
0000
F800
1800
1800
1800
1800
1800
1800
1800
1800
1800
1800
1800
1800
1800
1800
F800
0000
0000
ENDCHAR
STARTCHAR Circumflex
ENCODING 94
SWIDTH 733 0
DWIDTH 11 0
BBX 7 19 2 -4
BITMAP
0000
0000
0000
1000
3800
6c00
8200
0000
0000
0000
0000
0000
0000
0000
0000
0000
0000
0000
0000
ENDCHAR
STARTCHAR Underscore
ENCODING 95
SWIDTH 733 0
DWIDTH 11 0
BBX 11 19 0 -4
BITMAP
0000
0000
0000
0000
0000
0000
0000
0000
0000
0000
0000
0000
0000
0000
0000
FFE0
0000
0000
0000
ENDCHAR
STARTCHAR SingleOpenQuot
ENCODING 96
SWIDTH 733 0
DWIDTH 11 0
BBX 4 19 4 -4
BITMAP
0000
0000
3000
6000
C000
E000
E000
4000
0000
0000
0000
0000
0000
0000
0000
0000
0000
0000
0000
ENDCHAR
STARTCHAR a
ENCODING 97
SWIDTH 733 0
DWIDTH 11 0
BBX 9 19 2 -4
BITMAP
0000
0000
0000
0000
0000
0000
0000
3e00
4300
0300
3f00
6300
c300
c700
7980
0000
0000
0000
0000
ENDCHAR
STARTCHAR b
ENCODING 98
SWIDTH 733 0
DWIDTH 11 0
BBX 9 19 1 -4
BITMAP
0000
0000
0000
6000
E000
6000
6000
6E00
7300
6180
6180
6180
6180
7300
4E00
0000
0000
0000
0000
ENDCHAR
STARTCHAR c
ENCODING 99
SWIDTH 733 0
DWIDTH 11 0
BBX 8 19 2 -4
BITMAP
0000
0000
0000
0000
0000
0000
0000
3F00
6100
C100
C000
C000
C000
6100
3E00
0000
0000
0000
0000
ENDCHAR
STARTCHAR d
ENCODING 100
SWIDTH 733 0
DWIDTH 11 0
BBX 9 19 2 -4
BITMAP
0000
0000
0000
0300
0700
0300
0300
3B00
6700
C300
C300
C300
C300
6700
3980
0000
0000
0000
0000
ENDCHAR
STARTCHAR e
ENCODING 101
SWIDTH 733 0
DWIDTH 11 0
BBX 8 19 2 -4
BITMAP
0000
0000
0000
0000
0000
0000
0000
3C00
6600
C300
FF00
C000
C000
6100
3E00
0000
0000
0000
0000
ENDCHAR
STARTCHAR f
ENCODING 102
SWIDTH 733 0
DWIDTH 11 0
BBX 7 19 2 -4
BITMAP
0000
0000
0000
1E00
3000
3000
3000
FE00
3000
3000
3000
3000
3000
3000
FE00
0000
0000
0000
0000
ENDCHAR
STARTCHAR g
ENCODING 103
SWIDTH 733 0
DWIDTH 11 0
BBX 9 19 2 -4
BITMAP
0000
0000
0000
0000
0000
0000
0000
7d80
c600
c600
c600
7c00
c000
7f00
c180
c180
c300
7e00
0000
ENDCHAR
STARTCHAR h
ENCODING 104
SWIDTH 733 0
DWIDTH 11 0
BBX 10 19 1 -4
BITMAP
0000
0000
0000
6000
E000
6000
6000
6F00
7180
6180
6180
6180
6180
6180
F3C0
0000
0000
0000
0000
ENDCHAR
STARTCHAR i
ENCODING 105
SWIDTH 733 0
DWIDTH 11 0
BBX 8 19 2 -4
BITMAP
0000
0000
0000
1000
3800
1000
0000
1800
F800
1800
1800
1800
1800
1800
FF00
0000
0000
0000
0000
ENDCHAR
STARTCHAR j
ENCODING 106
SWIDTH 733 0
DWIDTH 11 0
BBX 7 19 1 -4
BITMAP
0000
0000
0000
0400
0E00
0400
0000
0600
3E00
0600
0600
0600
0600
0600
0600
0600
8600
7C00
0000
ENDCHAR
STARTCHAR k
ENCODING 107
SWIDTH 733 0
DWIDTH 11 0
BBX 10 19 1 -4
BITMAP
0000
0000
0000
6000
E000
6000
6000
6780
6200
6400
6800
7C00
6600
6300
F1c0
0000
0000
0000
0000
ENDCHAR
STARTCHAR l
ENCODING 108
SWIDTH 733 0
DWIDTH 11 0
BBX 6 19 3 -4
BITMAP
0000
0000
0000
7000
3000
3000
3000
3000
3000
3000
3000
3000
3000
3000
fc00
0000
0000
0000
0000
ENDCHAR
STARTCHAR m
ENCODING 109
SWIDTH 733 0
DWIDTH 11 0
BBX 11 19 0 -4
BITMAP
0000
0000
0000
0000
0000
0000
0000
5dC0
f760
6660
6660
6660
6660
6660
EEE0
0000
0000
0000
0000
ENDCHAR
STARTCHAR n
ENCODING 110
SWIDTH 733 0
DWIDTH 11 0
BBX 10 19 1 -4
BITMAP
0000
0000
0000
0000
0000
0000
0000
6F00
F180
6180
6180
6180
6180
6180
F3C0
0000
0000
0000
0000
ENDCHAR
STARTCHAR o
ENCODING 111
SWIDTH 733 0
DWIDTH 11 0
BBX 8 19 2 -4
BITMAP
0000
0000
0000
0000
0000
0000
0000
3C00
6600
C300
C300
C300
C300
6600
3C00
0000
0000
0000
0000
ENDCHAR
STARTCHAR p
ENCODING 112
SWIDTH 733 0
DWIDTH 11 0
BBX 9 19 1 -4
BITMAP
0000
0000
0000
0000
0000
0000
0000
6E00
F300
6180
6180
6180
6180
7300
6E00
6000
6000
F800
0000
ENDCHAR
STARTCHAR q
ENCODING 113
SWIDTH 733 0
DWIDTH 11 0
BBX 9 19 1 -4
BITMAP
0000
0000
0000
0000
0000
0000
0000
3D00
6300
C300
C300
C300
C300
6700
3B00
0300
0300
0F80
0000
ENDCHAR
STARTCHAR r
ENCODING 114
SWIDTH 733 0
DWIDTH 11 0
BBX 8 19 2 -4
BITMAP
0000
0000
0000
0000
0000
0000
0000
6700
Eb00
7000
6000
6000
6000
6000
F800
0000
0000
0000
0000
ENDCHAR
STARTCHAR s
ENCODING 115
SWIDTH 733 0
DWIDTH 11 0
BBX 8 19 2 -4
BITMAP
0000
0000
0000
0000
0000
0000
0000
7e00
c200
c000
7800
0e00
0300
8300
fe00
0000
0000
0000
0000
ENDCHAR
STARTCHAR t
ENCODING 116
SWIDTH 733 0
DWIDTH 11 0
BBX 9 19 2 -4
BITMAP
0000
0000
0000
0000
3000
3000
3000
Ff00
3000
3000
3000
3000
3000
3080
1f00
0000
0000
0000
0000
ENDCHAR
STARTCHAR u
ENCODING 117
SWIDTH 733 0
DWIDTH 11 0
BBX 10 19 1 -4
BITMAP
0000
0000
0000
0000
0000
0000
0000
6180
E380
6180
6180
6180
6180
63C0
3d80
0000
0000
0000
0000
ENDCHAR
STARTCHAR v
ENCODING 118
SWIDTH 733 0
DWIDTH 11 0
BBX 9 19 1 -4
BITMAP
0000
0000
0000
0000
0000
0000
0000
f380
6100
6200
3200
3400
1c00
1800
0800
0000
0000
0000
0000
ENDCHAR
STARTCHAR w
ENCODING 119
SWIDTH 733 0
DWIDTH 11 0
BBX 11 19 0 -4
BITMAP
0000
0000
0000
0000
0000
0000
0000
e0E0
4040
64C0
6eC0
2a80
3B80
3180
3180
0000
0000
0000
0000
ENDCHAR
STARTCHAR x
ENCODING 120
SWIDTH 733 0
DWIDTH 11 0
BBX 9 19 1 -4
BITMAP
0000
0000
0000
0000
0000
0000
0000
f380
6200
3400
1c00
1c00
2600
4300
e780
0000
0000
0000
0000
ENDCHAR
STARTCHAR y
ENCODING 121
SWIDTH 733 0
DWIDTH 11 0
BBX 9 19 1 -4
BITMAP
0000
0000
0000
0000
0000
0000
0000
f380
6100
3200
3200
1c00
1c00
0800
0800
1000
7000
6000
0000
ENDCHAR
STARTCHAR z
ENCODING 122
SWIDTH 733 0
DWIDTH 11 0
BBX 7 19 2 -4
BITMAP
0000
0000
0000
0000
0000
0000
0000
FE00
8600
0C00
1800
3000
6000
C200
FE00
0000
0000
0000
0000
ENDCHAR
STARTCHAR OpenBrace
ENCODING 123
SWIDTH 733 0
DWIDTH 11 0
BBX 7 19 2 -4
BITMAP
0000
0E00
1800
1800
1800
1800
1800
3000
E000
3000
1800
1800
1800
1800
1800
1800
0E00
0000
0000
ENDCHAR
STARTCHAR LongVertMark
ENCODING 124
SWIDTH 733 0
DWIDTH 11 0
BBX 2 19 5 -4
BITMAP
0000
0000
C000
C000
C000
C000
C000
C000
C000
C000
C000
C000
C000
C000
C000
C000
0000
0000
0000
ENDCHAR
STARTCHAR CloseBrace
ENCODING 125
SWIDTH 733 0
DWIDTH 11 0
BBX 7 19 3 -4
BITMAP
0000
E000
3000
3000
3000
3000
3000
1800
0E00
1800
3000
3000
3000
3000
3000
3000
E000
0000
0000
ENDCHAR
STARTCHAR OneWavyLine
ENCODING 126
SWIDTH 733 0
DWIDTH 11 0
BBX 9 19 1 -4
BITMAP
0000
0000
0000
0000
0000
0000
0000
7080
fc80
9f80
8700
0000
0000
0000
0000
0000
0000
0000
0000
ENDCHAR
STARTCHAR MediumShading
ENCODING 127
SWIDTH 733 0
DWIDTH 11 0
BBX 11 19 0 -4
BITMAP
aaa0
5540
aaa0
5540
aaa0
5540
aaa0
5540
aaa0
5540
aaa0
5540
aaa0
5540
aaa0
5540
aaa0
5540
aaa0
ENDCHAR
STARTCHAR InvExclamation
ENCODING 161
SWIDTH 733 0
DWIDTH 11 0
BBX 4 19 3 -4
BITMAP
0000
0000
0000
6000
f000
6000
0000
0000
6000
6000
6000
6000
6000
6000
6000
6000
6000
0000
0000
ENDCHAR
STARTCHAR CentSign
ENCODING 162
SWIDTH 733 0
DWIDTH 11 0
BBX 8 19 2 -4
BITMAP
0000
0000
0000
0000
0800
0800
3f00
6100
C100
C000
C000
C100
6100
3e00
0800
0800
0000
0000
0000
ENDCHAR
STARTCHAR SterlingSign
ENCODING 163
SWIDTH 733 0
DWIDTH 11 0
BBX 9 19 2 -4
BITMAP
0000
0000
0000
1e00
3100
6000
6000
6000
fc00
6000
fc00
6000
6000
7080
cf00
0000
0000
0000
0000
ENDCHAR
STARTCHAR CurrencySymbol
ENCODING 164
SWIDTH 733 0
DWIDTH 11 0
BBX 8 19 2 -4
BITMAP
0000
0000
0000
0000
4200
ff00
6600
4200
4200
6600
ff00
4200
0000
0000
0000
0000
0000
0000
0000
ENDCHAR
STARTCHAR Yensign
ENCODING 165
SWIDTH 733 0
DWIDTH 11 0
BBX 10 19 1 -4
BITMAP
0000
0000
0000
F3C0
6180
3100
3300
1a00
1e00
0c00
7f80
0c00
7f80
0C00
1e00
0000
0000
0000
0000
ENDCHAR
STARTCHAR BrokenVertMark
ENCODING 166
SWIDTH 733 0
DWIDTH 11 0
BBX 2 19 5 -4
BITMAP
0000
0000
C000
C000
C000
C000
C000
C000
0000
0000
C000
C000
C000
C000
C000
C000
0000
0000
0000
ENDCHAR
STARTCHAR SectionMark
ENCODING 167
SWIDTH 733 0
DWIDTH 11 0
BBX 6 19 3 -4
BITMAP
0000
0000
0000
7800
8c00
8400
c000
7000
b800
8c00
c400
7400
3800
0c00
8400
c400
7800
0000
0000
ENDCHAR
STARTCHAR diaeresisAccnt
ENCODING 168
SWIDTH 733 0
DWIDTH 11 0
BBX 4 19 4 -4
BITMAP
0000
0000
0000
9000
9000
0000
0000
0000
0000
0000
0000
0000
0000
0000
0000
0000
0000
0000
0000
ENDCHAR
STARTCHAR CopyrightSign
ENCODING 169
SWIDTH 733 0
DWIDTH 11 0
BBX 9 19 1 -4
BITMAP
0000
0000
0000
0000
3e00
4100
9e80
b280
b080
b280
9c80
4100
3e00
0000
0000
0000
0000
0000
0000
ENDCHAR
STARTCHAR FemaleOrdinal
ENCODING 170
SWIDTH 733 0
DWIDTH 11 0
BBX 6 19 2 -4
BITMAP
0000
0000
7000
0800
7800
8800
8800
7400
0000
fc00
0000
0000
0000
0000
0000
0000
0000
0000
0000
ENDCHAR
STARTCHAR DblOpenAnglQut
ENCODING 171
SWIDTH 733 0
DWIDTH 11 0
BBX 8 19 2 -4
BITMAP
0000
0000
0000
0000
0000
1100
3300
6600
cc00
cc00
6600
3300
1100
0000
0000
0000
0000
0000
0000
ENDCHAR
STARTCHAR NotSign
ENCODING 172
SWIDTH 733 0
DWIDTH 11 0
BBX 10 19 1 -4
BITMAP
0000
0000
0000
0000
0000
0000
0000
0000
FFC0
FFC0
00c0
00c0
00c0
0000
0000
0000
0000
0000
0000
ENDCHAR
STARTCHAR SoftHyphen
ENCODING 173
SWIDTH 733 0
DWIDTH 11 0
BBX 10 19 1 -4
BITMAP
0000
0000
0000
0000
0000
0000
0000
0000
FFC0
FFC0
0000
0000
0000
0000
0000
0000
0000
0000
0000
ENDCHAR
STARTCHAR RegisTradeMark
ENCODING 174
SWIDTH 733 0
DWIDTH 11 0
BBX 9 19 1 -4
BITMAP
0000
0000
0000
0000
3e00
4100
bc80
b680
b680
bc80
b680
b280
4100
3e00
0000
0000
0000
0000
0000
ENDCHAR
STARTCHAR macronAccent
ENCODING 175
SWIDTH 733 0
DWIDTH 11 0
BBX 9 19 1 -4
BITMAP
0000
0000
0000
FF80
FF80
0000
0000
0000
0000
0000
0000
0000
0000
0000
0000
0000
0000
0000
0000
ENDCHAR
STARTCHAR DegreeSign
ENCODING 176
SWIDTH 733 0
DWIDTH 11 0
BBX 5 19 3 -4
BITMAP
0000
0000
0000
7000
d800
8800
d800
7000
0000
0000
0000
0000
0000
0000
0000
0000
0000
0000
0000
ENDCHAR
STARTCHAR PlusOverMinus
ENCODING 177
SWIDTH 733 0
DWIDTH 11 0
BBX 8 19 2 -4
BITMAP
0000
0000
0000
0000
1800
1800
ff00
ff00
1800
1800
0000
ff00
ff00
0000
0000
0000
0000
0000
0000
ENDCHAR
STARTCHAR SupNumberTwo
ENCODING 178
SWIDTH 733 0
DWIDTH 11 0
BBX 4 19 3 -4
BITMAP
0000
0000
6000
9000
1000
2000
4000
8000
9000
f000
0000
0000
0000
0000
0000
0000
0000
0000
0000
ENDCHAR
STARTCHAR SupNumberThree
ENCODING 179
SWIDTH 733 0
DWIDTH 11 0
BBX 4 19 3 -4
BITMAP
0000
0000
6000
9000
1000
6000
1000
1000
9000
6000
0000
0000
0000
0000
0000
0000
0000
0000
0000
ENDCHAR
STARTCHAR acuteAccent
ENCODING 180
SWIDTH 733 0
DWIDTH 11 0
BBX 4 19 4 -4
BITMAP
0000
0000
0000
3000
6000
C000
0000
0000
0000
0000
0000
0000
0000
0000
0000
0000
0000
0000
0000
ENDCHAR
STARTCHAR muGreek
ENCODING 181
SWIDTH 733 0
DWIDTH 11 0
BBX 10 19 1 -4
BITMAP
0000
0000
0000
0000
0000
0000
0000
18C0
18C0
1080
3180
3180
2100
7b80
6EC0
4000
C000
c000
0000
ENDCHAR
STARTCHAR ParagraphSign
ENCODING 182
SWIDTH 733 0
DWIDTH 11 0
BBX 8 19 2 -4
BITMAP
0000
0000
0000
3f00
7a00
fa00
fa00
fa00
fa00
7a00
3a00
0a00
0a00
0a00
0a00
0a00
0000
0000
0000
ENDCHAR
STARTCHAR middleDot
ENCODING 183
SWIDTH 733 0
DWIDTH 11 0
BBX 2 19 5 -4
BITMAP
0000
0000
0000
0000
0000
0000
0000
0000
c000
c000
0000
0000
0000
0000
0000
0000
0000
0000
0000
ENDCHAR
STARTCHAR cedilla
ENCODING 184
SWIDTH 733 0
DWIDTH 11 0
BBX 6 19 3 -4
BITMAP
0000
0000
0000
0000
0000
0000
0000
0000
0000
0000
0000
0000
0000
0000
0000
0000
3800
8c00
7800
ENDCHAR
STARTCHAR SupNumberOne
ENCODING 185
SWIDTH 733 0
DWIDTH 11 0
BBX 3 19 4 -4
BITMAP
0000
0000
2000
6000
a000
2000
2000
2000
2000
2000
0000
0000
0000
0000
0000
0000
0000
0000
0000
ENDCHAR
STARTCHAR MaleOrdinal
ENCODING 186
SWIDTH 733 0
DWIDTH 11 0
BBX 6 19 2 -4
BITMAP
0000
0000
7000
8800
8800
8800
8800
7000
0000
fc00
0000
0000
0000
0000
0000
0000
0000
0000
0000
ENDCHAR
STARTCHAR DblClosAnglQut
ENCODING 187
SWIDTH 733 0
DWIDTH 11 0
BBX 8 19 2 -4
BITMAP
0000
0000
0000
0000
0000
8800
cc00
6600
3300
3300
6600
cc00
8800
0000
0000
0000
0000
0000
0000
ENDCHAR
STARTCHAR FracOneFourth
ENCODING 188
SWIDTH 733 0
DWIDTH 11 0
BBX 9 19 1 -4
BITMAP
0000
2000
6000
a000
2080
2100
2200
2400
0800
1200
2600
4400
8d00
0900
1f80
0100
0100
0000
0000
ENDCHAR
STARTCHAR FracOneHalf
ENCODING 189
SWIDTH 733 0
DWIDTH 11 0
BBX 9 19 1 -4
BITMAP
0000
2000
6000
a000
2080
2100
2200
2400
0800
1000
2600
4900
8100
0200
0400
0800
0f00
0000
0000
ENDCHAR
STARTCHAR FracThreeFour
ENCODING 190
SWIDTH 733 0
DWIDTH 11 0
BBX 9 19 1 -4
BITMAP
0000
3000
4800
0800
3080
0900
4a00
3400
0800
1200
2600
4400
8d00
0900
1f80
0100
0100
0000
0000
ENDCHAR
STARTCHAR InvertQuestion
ENCODING 191
SWIDTH 733 0
DWIDTH 11 0
BBX 8 19 2 -4
BITMAP
0000
0000
0000
0C00
1e00
0C00
0000
0000
0C00
0C00
3800
6000
c000
c300
c300
6300
3e00
0000
0000
ENDCHAR
STARTCHAR Agrave
ENCODING 192
SWIDTH 733 0
DWIDTH 11 0
BBX 10 19 1 -4
BITMAP
3000
1800
0000
0c00
0C00
0c00
1600
1600
1600
2300
3F00
2300
4180
4180
E3C0
0000
0000
0000
0000
ENDCHAR
STARTCHAR Aacute
ENCODING 193
SWIDTH 733 0
DWIDTH 11 0
BBX 10 19 1 -4
BITMAP
0300
0600
0000
0c00
0C00
0C00
1600
1600
1600
2300
3F00
2300
4180
4180
E3C0
0000
0000
0000
0000
ENDCHAR
STARTCHAR Acircumflex
ENCODING 194
SWIDTH 733 0
DWIDTH 11 0
BBX 10 19 1 -4
BITMAP
0c00
1e00
2100
0c00
0C00
0C00
1600
1600
1600
2300
3F00
2300
4180
4180
E3C0
0000
0000
0000
0000
ENDCHAR
STARTCHAR Atilde
ENCODING 195
SWIDTH 733 0
DWIDTH 11 0
BBX 10 19 1 -4
BITMAP
1800
2d00
0600
0800
0C00
0C00
1600
1600
1600
2300
3F00
2300
4180
4180
E3C0
0000
0000
0000
0000
ENDCHAR
STARTCHAR Adiaeresis
ENCODING 196
SWIDTH 733 0
DWIDTH 11 0
BBX 10 19 1 -4
BITMAP
1200
1200
0000
0c00
0C00
0c00
1600
1600
1600
2300
3F00
2300
4180
4180
E3C0
0000
0000
0000
0000
ENDCHAR
STARTCHAR Abolle
ENCODING 197
SWIDTH 733 0
DWIDTH 11 0
BBX 10 19 1 -4
BITMAP
0c00
1200
1200
0c00
0c00
0C00
1600
1600
1600
2300
3F00
2300
4180
4180
E3C0
0000
0000
0000
0000
ENDCHAR
STARTCHAR AEdiphthong
ENCODING 198
SWIDTH 733 0
DWIDTH 11 0
BBX 11 19 0 -4
BITMAP
0000
0000
0000
1FE0
0E20
0E20
1600
1640
17c0
2640
3E00
2600
4620
4620
efE0
0000
0000
0000
0000
ENDCHAR
STARTCHAR Ccedilla
ENCODING 199
SWIDTH 733 0
DWIDTH 11 0
BBX 9 19 1 -4
BITMAP
0000
0000
0000
1F80
7080
6080
C000
C000
C000
C000
C000
C000
6080
7080
1f00
0400
0E00
2300
1E00
ENDCHAR
STARTCHAR Egrave
ENCODING 200
SWIDTH 733 0
DWIDTH 11 0
BBX 8 19 2 -4
BITMAP
6000
3000
1800
0000
ff00
6100
6100
6000
6400
7c00
6400
6000
6100
6100
ff00
0000
0000
0000
0000
ENDCHAR
STARTCHAR Eacute
ENCODING 201
SWIDTH 733 0
DWIDTH 11 0
BBX 8 19 2 -4
BITMAP
0600
0c00
1800
0000
FF00
6100
6100
6000
6400
7C00
6400
6000
6100
6100
FF00
0000
0000
0000
0000
ENDCHAR
STARTCHAR Ecircumflex
ENCODING 202
SWIDTH 733 0
DWIDTH 11 0
BBX 8 19 2 -4
BITMAP
1800
3C00
4200
0000
FF00
6100
6100
6000
6400
7C00
6400
6000
6100
6100
FF00
0000
0000
0000
0000
ENDCHAR
STARTCHAR Ediaeresis
ENCODING 203
SWIDTH 733 0
DWIDTH 11 0
BBX 8 19 2 -4
BITMAP
0000
2400
2400
0000
FF00
6100
6100
6000
6400
7C00
6400
6000
6100
6100
FF00
0000
0000
0000
0000
ENDCHAR
STARTCHAR Igrave
ENCODING 204
SWIDTH 733 0
DWIDTH 11 0
BBX 6 19 3 -4
BITMAP
6000
3000
0000
fc00
3000
3000
3000
3000
3000
3000
3000
3000
3000
3000
fc00
0000
0000
0000
0000
ENDCHAR
STARTCHAR Iacute
ENCODING 205
SWIDTH 733 0
DWIDTH 11 0
BBX 6 19 3 -4
BITMAP
1800
3000
0000
fc00
3000
3000
3000
3000
3000
3000
3000
3000
3000
3000
FC00
0000
0000
0000
0000
ENDCHAR
STARTCHAR Icircumflex
ENCODING 206
SWIDTH 733 0
DWIDTH 11 0
BBX 6 19 3 -4
BITMAP
3000
7800
8400
0000
FC00
3000
3000
3000
3000
3000
3000
3000
3000
3000
FC00
0000
0000
0000
0000
ENDCHAR
STARTCHAR Idiaeresis
ENCODING 207
SWIDTH 733 0
DWIDTH 11 0
BBX 6 19 3 -4
BITMAP
0000
4800
4800
0000
fc00
3000
3000
3000
3000
3000
3000
3000
3000
3000
fc00
0000
0000
0000
0000
ENDCHAR
STARTCHAR Eth
ENCODING 208
SWIDTH 733 0
DWIDTH 11 0
BBX 10 19 1 -4
BITMAP
0000
0000
0000
FE00
6380
6180
60C0
60C0
F8C0
60C0
60C0
60C0
6180
6380
FE00
0000
0000
0000
0000
ENDCHAR
STARTCHAR Ntilde
ENCODING 209
SWIDTH 733 0
DWIDTH 11 0
BBX 9 19 1 -4
BITMAP
3000
5a00
0c00
0000
e380
7100
7100
5900
5900
4d00
4d00
4700
4700
4300
e300
0000
0000
0000
0000
ENDCHAR
STARTCHAR Ograve
ENCODING 210
SWIDTH 733 0
DWIDTH 11 0
BBX 10 19 1 -4
BITMAP
3000
1800
0c00
0000
1E00
7380
6180
C0C0
C0C0
C0C0
C0C0
C0C0
6180
7380
1E00
0000
0000
0000
0000
ENDCHAR
STARTCHAR Oacute
ENCODING 211
SWIDTH 733 0
DWIDTH 11 0
BBX 10 19 1 -4
BITMAP
0300
0600
0c00
0000
1E00
7380
6180
C0C0
C0C0
C0C0
C0C0
C0C0
6180
7380
1E00
0000
0000
0000
0000
ENDCHAR
STARTCHAR Ocircumflex
ENCODING 212
SWIDTH 733 0
DWIDTH 11 0
BBX 10 19 1 -4
BITMAP
0C00
1E00
2100
0000
1E00
7380
6180
C0C0
C0C0
C0C0
C0C0
C0C0
6180
7380
1E00
0000
0000
0000
0000
ENDCHAR
STARTCHAR Otilde
ENCODING 213
SWIDTH 733 0
DWIDTH 11 0
BBX 10 19 1 -4
BITMAP
1800
2d00
0600
0000
1e00
7380
6180
c0c0
c0c0
c0c0
c0c0
c0c0
6180
7380
1e00
0000
0000
0000
0000
ENDCHAR
STARTCHAR Odiaeresis
ENCODING 214
SWIDTH 733 0
DWIDTH 11 0
BBX 10 19 1 -4
BITMAP
0000
1200
1200
0000
1E00
7380
6180
C0C0
C0C0
C0C0
C0C0
C0C0
6180
7380
1E00
0000
0000
0000
0000
ENDCHAR
STARTCHAR MultiplySign
ENCODING 215
SWIDTH 733 0
DWIDTH 11 0
BBX 10 19 1 -4
BITMAP
0000
0000
0000
0000
c0c0
e1c0
7380
3f00
1e00
1e00
3f00
7380
e1c0
c0c0
0000
0000
0000
0000
0000
ENDCHAR
STARTCHAR Ooblique
ENCODING 216
SWIDTH 733 0
DWIDTH 11 0
BBX 10 19 1 -4
BITMAP
0000
0080
0080
1F00
7380
6380
C2C0
C4C0
C4C0
C8C0
C8C0
D0C0
7180
7380
3E00
4000
4000
0000
0000
ENDCHAR
STARTCHAR Ugrave
ENCODING 217
SWIDTH 733 0
DWIDTH 11 0
BBX 10 19 1 -4
BITMAP
3000
1800
0c00
0000
F1C0
6080
6080
6080
6080
6080
6080
6080
6080
3100
1E00
0000
0000
0000
0000
ENDCHAR
STARTCHAR Uacute
ENCODING 218
SWIDTH 733 0
DWIDTH 11 0
BBX 10 19 1 -4
BITMAP
0300
0600
0c00
0000
F1C0
6080
6080
6080
6080
6080
6080
6080
6080
3100
1E00
0000
0000
0000
0000
ENDCHAR
STARTCHAR Ucircumflex
ENCODING 219
SWIDTH 733 0
DWIDTH 11 0
BBX 10 19 1 -4
BITMAP
0c00
1e00
2100
0000
f1c0
6080
6080
6080
6080
6080
6080
6080
6080
3100
1e00
0000
0000
0000
0000
ENDCHAR
STARTCHAR Udiaeresis
ENCODING 220
SWIDTH 733 0
DWIDTH 11 0
BBX 10 19 1 -4
BITMAP
1200
1200
0000
f1c0
6080
6080
6080
6080
6080
6080
6080
6080
6080
3100
1e00
0000
0000
0000
0000
ENDCHAR
STARTCHAR Yacute
ENCODING 221
SWIDTH 733 0
DWIDTH 11 0
BBX 10 19 1 -4
BITMAP
0300
0600
0c00
0000
F3C0
6180
3100
3300
1a00
1e00
0C00
0C00
0C00
0C00
3f00
0000
0000
0000
0000
ENDCHAR
STARTCHAR Thorn
ENCODING 222
SWIDTH 733 0
DWIDTH 11 0
BBX 9 19 1 -4
BITMAP
0000
0000
0000
F000
6000
7E00
6300
6180
6180
6180
6300
7E00
6000
6000
F000
0000
0000
0000
0000
ENDCHAR
STARTCHAR EsZetLigature
ENCODING 223
SWIDTH 733 0
DWIDTH 11 0
BBX 10 19 1 -4
BITMAP
0000
0000
0000
3E00
6300
6300
6300
6200
6f00
6180
60C0
60C0
68C0
6980
6700
6000
e000
0000
0000
ENDCHAR
STARTCHAR agrave
ENCODING 224
SWIDTH 733 0
DWIDTH 11 0
BBX 9 19 2 -4
BITMAP
0000
0000
0000
3000
1800
0c00
0000
3e00
4300
0300
3f00
6300
c300
c700
7980
0000
0000
0000
0000
ENDCHAR
STARTCHAR aacute
ENCODING 225
SWIDTH 733 0
DWIDTH 11 0
BBX 9 19 2 -4
BITMAP
0000
0000
0000
0600
0c00
1800
0000
3E00
4300
0300
3F00
6300
C300
C700
7980
0000
0000
0000
0000
ENDCHAR
STARTCHAR acircumflex
ENCODING 226
SWIDTH 733 0
DWIDTH 11 0
BBX 9 19 2 -4
BITMAP
0000
0000
0000
0800
1c00
2200
0000
3E00
4300
0300
3F00
6300
C300
C700
7980
0000
0000
0000
0000
ENDCHAR
STARTCHAR atilde
ENCODING 227
SWIDTH 733 0
DWIDTH 11 0
BBX 9 19 2 -4
BITMAP
0000
0000
0000
3000
5a00
0c00
0000
3e00
4300
0300
3f00
6300
c300
c700
7980
0000
0000
0000
0000
ENDCHAR
STARTCHAR adiaeresis
ENCODING 228
SWIDTH 733 0
DWIDTH 11 0
BBX 9 19 2 -4
BITMAP
0000
0000
0000
2400
2400
0000
0000
3E00
4300
0300
3F00
6300
C300
C700
7980
0000
0000
0000
0000
ENDCHAR
STARTCHAR abolle
ENCODING 229
SWIDTH 733 0
DWIDTH 11 0
BBX 9 19 2 -4
BITMAP
0000
0000
1800
2400
2400
1800
0000
3e00
4300
0300
3f00
6300
c300
c700
7980
0000
0000
0000
0000
ENDCHAR
STARTCHAR aedihthong
ENCODING 230
SWIDTH 733 0
DWIDTH 11 0
BBX 11 19 0 -4
BITMAP
0000
0000
0000
0000
0000
0000
0000
3bc0
4620
0620
3fe0
6600
c600
cf20
79c0
0000
0000
0000
0000
ENDCHAR
STARTCHAR ccedilla
ENCODING 231
SWIDTH 733 0
DWIDTH 11 0
BBX 8 19 2 -4
BITMAP
0000
0000
0000
0000
0000
0000
0000
3F00
6100
C100
C000
C000
C000
6100
3E00
0800
1C00
4600
3C00
ENDCHAR
STARTCHAR egrave
ENCODING 232
SWIDTH 733 0
DWIDTH 11 0
BBX 8 19 2 -4
BITMAP
0000
0000
0000
6000
3000
1800
0000
3c00
6200
c300
ff00
c000
c000
6100
3e00
0000
0000
0000
0000
ENDCHAR
STARTCHAR eacute
ENCODING 233
SWIDTH 733 0
DWIDTH 11 0
BBX 8 19 2 -4
BITMAP
0000
0000
0000
0300
0600
0c00
0000
3c00
6200
c300
ff00
c000
c000
6100
3e00
0000
0000
0000
0000
ENDCHAR
STARTCHAR ecircumflex
ENCODING 234
SWIDTH 733 0
DWIDTH 11 0
BBX 8 19 2 -4
BITMAP
0000
0000
0000
0800
1c00
2200
0000
3c00
6200
c300
ff00
c000
c000
6100
3e00
0000
0000
0000
0000
ENDCHAR
STARTCHAR ediaeresis
ENCODING 235
SWIDTH 733 0
DWIDTH 11 0
BBX 8 19 2 -4
BITMAP
0000
0000
0000
2400
2400
0000
0000
3C00
6200
C300
FF00
C000
C000
6100
3E00
0000
0000
0000
0000
ENDCHAR
STARTCHAR igrave
ENCODING 236
SWIDTH 733 0
DWIDTH 11 0
BBX 8 19 2 -4
BITMAP
0000
0000
0000
6000
3000
1800
0000
1800
F800
1800
1800
1800
1800
1800
FF00
0000
0000
0000
0000
ENDCHAR
STARTCHAR iacute
ENCODING 237
SWIDTH 733 0
DWIDTH 11 0
BBX 8 19 2 -4
BITMAP
0000
0000
0000
0600
0c00
1800
0000
1800
F800
1800
1800
1800
1800
1800
FF00
0000
0000
0000
0000
ENDCHAR
STARTCHAR icircumflex
ENCODING 238
SWIDTH 733 0
DWIDTH 11 0
BBX 8 19 2 -4
BITMAP
0000
0000
0000
1000
3800
4400
0000
1800
F800
1800
1800
1800
1800
1800
FF00
0000
0000
0000
0000
ENDCHAR
STARTCHAR idiaeresis
ENCODING 239
SWIDTH 733 0
DWIDTH 11 0
BBX 8 19 2 -4
BITMAP
0000
0000
0000
2400
2400
0000
0000
1800
F800
1800
1800
1800
1800
1800
FF00
0000
0000
0000
0000
ENDCHAR
STARTCHAR ethIcelandic
ENCODING 240
SWIDTH 733 0
DWIDTH 11 0
BBX 9 19 2 -4
BITMAP
0000
0000
0000
ec00
3800
6800
0C00
3E00
6600
C300
C300
C300
C300
6600
3C00
0000
0000
0000
0000
ENDCHAR
STARTCHAR ntilde
ENCODING 241
SWIDTH 733 0
DWIDTH 11 0
BBX 10 19 1 -4
BITMAP
0000
0000
0000
1800
2d00
0600
0000
6F00
F180
6180
6180
6180
6180
6180
F3C0
0000
0000
0000
0000
ENDCHAR
STARTCHAR ograve
ENCODING 242
SWIDTH 733 0
DWIDTH 11 0
BBX 8 19 2 -4
BITMAP
0000
0000
0000
6000
3000
1800
0000
3C00
6600
C300
C300
C300
C300
6600
3C00
0000
0000
0000
0000
ENDCHAR
STARTCHAR oacute
ENCODING 243
SWIDTH 733 0
DWIDTH 11 0
BBX 8 19 2 -4
BITMAP
0000
0000
0000
0600
0c00
1800
0000
3C00
6600
C300
C300
C300
C300
6600
3C00
0000
0000
0000
0000
ENDCHAR
STARTCHAR ocircumflex
ENCODING 244
SWIDTH 733 0
DWIDTH 11 0
BBX 8 19 2 -4
BITMAP
0000
0000
0000
1000
3800
4400
0000
3C00
6600
C300
C300
C300
C300
6600
3C00
0000
0000
0000
0000
ENDCHAR
STARTCHAR otilde
ENCODING 245
SWIDTH 733 0
DWIDTH 11 0
BBX 9 19 2 -4
BITMAP
0000
0000
0000
3000
5a00
0c00
0000
3C00
6600
C300
C300
C300
C300
6600
3C00
0000
0000
0000
0000
ENDCHAR
STARTCHAR odiaeresis
ENCODING 246
SWIDTH 733 0
DWIDTH 11 0
BBX 8 19 2 -4
BITMAP
0000
0000
0000
2400
2400
0000
0000
3C00
6600
C300
C300
C300
C300
6600
3C00
0000
0000
0000
0000
ENDCHAR
STARTCHAR DivideSign
ENCODING 247
SWIDTH 733 0
DWIDTH 11 0
BBX 10 19 1 -4
BITMAP
0000
0000
0000
0000
0000
0c00
0c00
0000
FFC0
FFC0
0000
0c00
0c00
0000
0000
0000
0000
0000
0000
ENDCHAR
STARTCHAR ooblique
ENCODING 248
SWIDTH 733 0
DWIDTH 11 0
BBX 8 19 2 -4
BITMAP
0000
0000
0000
0000
0000
0200
0200
3C00
6600
CB00
CB00
D300
D300
6600
3C00
4000
4000
0000
0000
ENDCHAR
STARTCHAR ugrave
ENCODING 249
SWIDTH 733 0
DWIDTH 11 0
BBX 10 19 1 -4
BITMAP
0000
0000
0000
3000
1800
0c00
0000
6180
E380
6180
6180
6180
6180
63C0
3D80
0000
0000
0000
0000
ENDCHAR
STARTCHAR uacute
ENCODING 250
SWIDTH 733 0
DWIDTH 11 0
BBX 10 19 1 -4
BITMAP
0000
0000
0000
0300
0600
0c00
0000
6180
E380
6180
6180
6180
6180
63C0
3D80
0000
0000
0000
0000
ENDCHAR
STARTCHAR ucircumflex
ENCODING 251
SWIDTH 733 0
DWIDTH 11 0
BBX 10 19 1 -4
BITMAP
0000
0000
0000
0800
1c00
2200
0000
6180
E380
6180
6180
6180
6180
63C0
3d80
0000
0000
0000
0000
ENDCHAR
STARTCHAR udiaeresis
ENCODING 252
SWIDTH 733 0
DWIDTH 11 0
BBX 10 19 1 -4
BITMAP
0000
0000
0000
1200
1200
0000
0000
6180
E380
6180
6180
6180
6180
63C0
3D80
0000
0000
0000
0000
ENDCHAR
STARTCHAR yacute
ENCODING 253
SWIDTH 733 0
DWIDTH 11 0
BBX 9 19 1 -4
BITMAP
0000
0000
0000
0300
0600
0c00
0000
f380
6100
3200
3200
1c00
1c00
0800
0800
1000
7000
6000
0000
ENDCHAR
STARTCHAR thorn
ENCODING 254
SWIDTH 733 0
DWIDTH 11 0
BBX 9 19 1 -4
BITMAP
0000
0000
0000
6000
E000
6000
6000
6E00
7300
6180
6180
6180
6180
7300
6E00
6000
6000
F800
0000
ENDCHAR
STARTCHAR ydiaeresis
ENCODING 255
SWIDTH 733 0
DWIDTH 11 0
BBX 9 19 1 -4
BITMAP
0000
0000
0000
1200
1200
0000
0000
f380
6100
3200
3200
1c00
1c00
0800
0800
1000
7000
2000
0000
ENDCHAR
ENDFONT
